<?xml version="1.0" encoding="UTF-8"?>
<svg width="120px" height="27px" viewBox="0 0 120 27" version="1.1" xmlns="http://www.w3.org/2000/svg" xmlns:xlink="http://www.w3.org/1999/xlink">
    <!-- Generator: Sketch 57.1 (83088) - https://sketch.com -->
    <title>logotext</title>
    <desc>Created with Sketch.</desc>
    <g id="页面-1" stroke="none" stroke-width="1" fill="none" fill-rule="evenodd">
        <g id="logotext" fill-rule="nonzero">
            <path d="M0,0.0753186559 L20.0988372,0.0753186559 L18.2534884,5.80533024 L13.0395349,5.80417149 L13.0511628,25.7891078 L13.05,26.986095 L6.54186047,26.986095 L6.54186047,5.80533024 L0.76627907,5.80533024 L0.00465116279,5.81691773 L0,0.0764774044 L0,0.0753186559 Z M53.0255814,0.0753186559 L73.5895349,0.0753186559 L71.744186,5.80533024 L66.0651163,5.80417149 L66.0767442,25.7891078 L66.0755814,27 L59.5674419,27 L59.5674419,5.80533024 L53.7918605,5.80533024 L53.0302326,5.81691773 L53.0255814,0.0764774044 L53.0255814,0.0753186559 Z M21.3255814,9.22132097 L21.3255814,8.63615295 L27.7697674,8.63615295 L27.772093,9.22132097 L27.7813953,25.2977984 L27.7627907,26.9872538 L21.3639535,26.9872538 L21.3639535,26.0718424 L21.3255814,9.22132097 L21.3255814,9.22132097 Z M30.3255814,1.26882966 L30.3255814,0 L36.6965116,0 L36.6965116,1.10196987 L36.7034884,12.5341831 L43.1395349,6.29548088 L50.8244186,6.29548088 L42.7546512,14.0996524 L51.7930233,26.986095 L44.7,26.986095 L38.6686047,18.0509849 L36.7569767,19.8991889 L36.7604651,27 L30.3488372,26.986095 L30.3488372,26.4125145 L30.3232558,1.26882966 L30.3255814,1.26882966 Z M98.5302326,1.26882966 L98.5302326,0 L104.903488,0 L104.903488,1.10196987 L104.910465,12.5341831 L111.346512,6.29548088 L119.031395,6.29548088 L110.961628,14.0996524 L120,26.986095 L112.906977,26.986095 L106.875581,18.0509849 L104.963953,19.8991889 L104.967442,27 L98.555814,26.986095 L98.555814,26.4125145 L98.5302326,1.26882966 L98.5302326,1.26882966 Z M88.8593023,17.4275782 C88.9872093,16.9698725 89.05,16.4936269 89.05,15.995365 C89.05,15.2433372 88.9093023,14.5457706 88.6290698,13.8980301 C88.0899789,12.6247814 87.0700845,11.6138429 85.7895349,11.0834299 C85.2038543,10.8392182 84.5786716,10.7026037 83.944186,10.6801854 L84,10.6778679 L83.8430233,10.6743917 L83.7802326,10.6755504 L83.705814,10.6743917 C83.2199195,10.6746989 82.7360903,10.7374015 82.2662791,10.8609502 C81.8173794,10.9808871 81.3859035,11.1580964 80.9825581,11.3881808 C80.5875095,11.6135373 80.2242544,11.8901946 79.9023256,12.2108922 C79.5804055,12.5309037 79.300995,12.8907329 79.0709302,13.2815759 C78.5890196,14.1050365 78.3372709,15.0421114 78.3417988,15.995365 C78.3419551,16.9470018 78.5946917,17.8816752 79.0744186,18.7045191 C79.305814,19.0996524 79.5825581,19.4577057 79.9069767,19.7798378 C80.6987969,20.5697858 81.7236399,21.0863141 82.8313953,21.2537659 C83.1174419,21.3001159 83.4104651,21.3244496 83.7116279,21.3244496 L83.7744186,21.3232908 L83.8488372,21.3244496 C83.8953488,21.3244496 83.9383721,21.3221321 83.9848837,21.3209733 L83.9174419,21.3186559 C85.2620302,21.2793141 86.5405414,20.7287249 87.4906977,19.7798378 C88.1460422,19.1289487 88.6180373,18.3177172 88.8593023,17.4275782 L88.8593023,17.4275782 Z M93.8523256,11.6743917 C94.4290698,13.004635 94.7174419,14.4438007 94.7186047,15.99073 C94.7186047,17.0150637 94.5883721,17.9988413 94.3255814,18.9385863 C94.0714352,19.8590945 93.6993827,20.7431526 93.2186047,21.5689455 C92.2709933,23.1927946 90.9152374,24.5426394 89.2848837,25.4855156 C88.1988014,26.1123385 87.0130817,26.5493141 85.7790698,26.7775203 L85.5674419,26.8146002 C85.2405356,26.8672571 84.9115675,26.9063023 84.5813953,26.9316338 C84.3662791,26.9478563 84.15,26.9548088 83.9302326,26.9594438 C83.8627907,26.9606025 83.7965116,26.9640788 83.727907,26.9640788 C83.6581395,26.9640788 83.5883721,26.9606025 83.5197674,26.9594438 C83.1327409,26.9526522 82.7462576,26.9275175 82.3616279,26.8841251 C82.3081395,26.8783314 82.2534884,26.8702202 82.1988372,26.8621089 C82.0928031,26.8486232 81.9869773,26.8335578 81.8813953,26.8169177 L81.6930233,26.7856315 C81.5896314,26.7670601 81.4865194,26.746973 81.3837209,26.7253766 L81.2244186,26.6917729 C80.13382,26.4499499 79.0868052,26.0431509 78.1197674,25.4855156 C76.4874789,24.5431813 75.1297103,23.1933275 74.1802326,21.5689455 C73.6983688,20.7434078 73.3255172,19.8593083 73.0709302,18.9385863 C72.8045399,17.9785721 72.6711336,16.9867661 72.6743594,15.99073 C72.6743594,14.967555 72.8046512,13.98146 73.0674419,13.0359212 C73.3188239,12.1146463 73.6906118,11.2302881 74.1732558,10.405562 C74.65,9.59791425 75.2197674,8.86326767 75.8848837,8.2004635 C76.5479871,7.53997924 77.2959656,6.9699382 78.1093023,6.50521437 C79.1253051,5.92656742 80.2263768,5.51089727 81.372093,5.27346466 L81.5813953,5.23406721 C82.1986018,5.11815743 82.8243879,5.05343214 83.4523256,5.0405562 C83.5395349,5.0382387 83.6267442,5.03592121 83.7162791,5.03592121 C83.8104651,5.03592121 83.9046512,5.03939745 83.9988372,5.04171495 C84.5468735,5.05445855 85.093264,5.10673899 85.6337209,5.198146 L85.6662791,5.202781 C85.9848837,5.25724218 86.2988372,5.32560834 86.6093023,5.40672074 C86.6360465,5.41367323 86.6639535,5.41946698 86.6906977,5.42757822 C86.7604651,5.44611819 86.8325581,5.46813441 86.9023256,5.48899189 C87.1031625,5.54595985 87.3017553,5.61051006 87.4976744,5.6825029 C87.6690888,5.74282942 87.8385528,5.80852445 88.005814,5.87949015 C89.3108031,6.41956679 90.4976567,7.2079208 91.5,8.2004635 C92.4994604,9.19817629 93.2979485,10.3773881 93.8523256,11.6743917 L93.8523256,11.6743917 Z M27.794186,3.30475087 C27.794186,5.08831703 26.3432763,6.53418308 24.5534884,6.53418308 C22.7637005,6.53418308 21.3127907,5.08831703 21.3127907,3.30475087 C21.3462386,1.5453436 22.7870454,0.136488618 24.552907,0.136488618 C26.3187685,0.136488618 27.7595754,1.5453436 27.7930233,3.30475087 L27.794186,3.30475087 Z" id="形状" fill="#FFFFFF"></path>
            <path d="M96.1021526,11.6603694 C95.5272453,10.3590259 94.6992497,9.17595553 93.6629217,8.17510718 C92.6244167,7.17945156 91.3947436,6.38853239 90.0426402,5.84656143 C88.6345432,5.27834597 87.1219307,4.9904775 85.5956234,5.00024025 L85.4546204,5.00256531 L85.4546204,5.00140278 L84,5.00140278 L84.1108741,5.0060529 C84.6788836,5.0187239 85.2451888,5.0711757 85.8053201,5.16299432 C85.8173717,5.16299432 85.8270129,5.16531938 85.8390644,5.16764444 C86.1692765,5.22228331 86.4958731,5.28970999 86.816444,5.37224956 C86.8441625,5.37922473 86.8730862,5.38503738 86.9008048,5.39317508 C86.973114,5.41177555 87.0466283,5.4338636 87.1201427,5.45478912 C87.3281056,5.5125448 87.5339109,5.57729849 87.7371814,5.64893148 L87.8793895,5.69892023 C89.3821832,6.23987183 90.7479334,7.08408336 91.8853201,8.17510718 C92.921193,9.17607511 93.7487717,10.3591343 94.3233459,11.6603694 C94.9211021,12.9949528 95.2199802,14.4388139 95.2211853,15.9907902 C95.2223905,17.0184659 95.0862081,18.0042906 94.8138434,18.9482642 C94.5506412,19.8718434 94.1650234,20.7588103 93.6665372,21.5872052 C92.6845126,23.2168286 91.2788317,24.5711899 89.5882973,25.5165535 C88.5974143,26.0705433 87.5256514,26.4773449 86.4091021,26.7232587 L86.23556,26.7592971 C85.5133681,26.9044515 84.7785754,26.983467 84.0409752,26.9952905 L84.0325391,26.9976156 L85.3991833,26.9976156 L85.3979782,26.9952905 C85.4678771,26.9964531 85.537776,27 85.6088801,27 C87.6310142,27.0063438 89.6186128,26.4944219 91.3683092,25.5165535 C93.0578215,24.5703017 94.4628989,23.2161218 95.4453439,21.5872052 C95.9437098,20.7587526 96.3293209,19.871801 96.5926501,18.9482642 C96.8650149,18.0042906 97.0011972,17.0184659 97,15.9907902 C97,14.4388139 96.6987037,12.9949528 96.1021526,11.6603694" id="路径" fill="#FF004F"></path>
            <path d="M82.7924703,26.9200084 L82.6239218,26.8979199 C82.3413503,26.8622538 82.0602435,26.8164954 81.7811792,26.7607387 L81.6150385,26.7270246 C80.4858329,26.484513 79.4017695,26.0763723 78.4005776,25.516807 C76.7110659,24.5707375 75.3054268,23.2165994 74.3217036,21.5873782 C73.8228688,20.7590953 73.4368337,19.8721024 73.1731658,18.9483831 C72.8977749,17.9851596 72.7600555,16.9901003 72.7638337,15.9908485 C72.7547299,14.0229972 73.2900579,12.0885051 74.3144801,10.3873434 C74.8080864,9.57704404 75.3980062,8.8399855 76.0866473,8.17500523 C76.7730826,7.5122184 77.5475361,6.9402915 78.3897423,6.47419032 C80.0764435,5.54296391 81.9791192,5.03755584 83.9217453,5.00472344 L84,5.00123578 L82.5793768,5.00123578 L82.5793768,5.00239833 L82.4324988,5 C80.397229,4.99298065 78.3955953,5.50124833 76.6272064,6.47419032 C75.7851338,6.9404855 75.0107057,7.51239368 74.3241114,8.17500523 C73.6382175,8.83626252 73.0430356,9.57978087 72.5531481,10.3873434 C71.5279928,12.0883202 70.9918377,14.0227975 71,15.9908485 C71,17.0197078 71.1373406,18.0043901 71.409426,18.9483831 C71.6827154,19.892376 72.0655613,20.7735912 72.5591677,21.5873782 C74.0546301,24.0666085 76.5051868,25.8737677 79.3757511,26.614257 C80.4355933,26.8892098 81.5303139,27.018364 82.6275335,26.9978995 L83.9975922,26.9978995 L83.9915726,26.9955743 C83.5908273,26.9894614 83.1906392,26.964242 82.7924703,26.9200084" id="路径" fill="#00F2EA"></path>
        </g>
    </g>
</svg>