<?xml version="1.0" encoding="UTF-8"?>
<svg width="34px" height="39px" viewBox="0 0 34 39" version="1.1" xmlns="http://www.w3.org/2000/svg" xmlns:xlink="http://www.w3.org/1999/xlink">
    <!-- Generator: Sketch 57.1 (83088) - https://sketch.com -->
    <title>logo</title>
    <desc>Created with Sketch.</desc>
    <g id="页面-1" stroke="none" stroke-width="1" fill="none" fill-rule="evenodd">
        <g id="logo" fill-rule="nonzero">
            <path d="M14,15.5986129 L14,14.1133768 C13.4492134,14.040368 12.8937601,14.0024884 12.3374825,14 C5.53458031,14 0,19.1804477 0,25.5469912 C0,29.4523859 2.08560208,32.9095062 5.26712374,35 C3.13682443,32.8679456 1.95248926,30.057585 1.95420355,27.138627 C1.95420355,20.862785 7.33129202,15.7451306 14,15.5986129" id="路径" fill="#00F2EA"></path>
            <path d="M14.3270124,32 C17.2025642,32 19.5483859,29.7265698 19.6552148,26.893337 L19.6649265,1.60131615 L24.3141914,1.60131615 C24.2149367,1.07323659 24.1646956,0.537213101 24.1641012,0 L17.8144025,0 L17.8038079,25.2928983 C17.6978619,28.1252536 15.3511573,30.3978064 12.4764884,30.3978064 C11.6134296,30.3981458 10.7633314,30.1891169 10,29.7888676 C10.9999544,31.1753424 12.6105704,31.998378 14.3270124,32 M32.9991171,10.1861256 L32.9991171,8.7804771 C31.2904862,8.78205509 29.6185303,8.28804731 28.1882845,7.35903482 C29.4422255,8.79389849 31.1305958,9.78588899 33,10.1861256" id="形状" fill="#00F2EA"></path>
            <path d="M28,7.71784336 C26.6016465,6.13450916 25.8314253,4.10280973 25.8323547,2 L24.1350558,2 C24.579153,4.34872233 25.9758497,6.41501163 28,7.71784336 M12.3253083,20.0652472 C9.38563022,20.0686094 7.00339763,22.426024 7,25.3350766 C7.00190968,27.2938688 8.10083201,29.0902144 9.85378743,30 C9.1988984,29.1062913 8.84622242,28.0306091 8.84615385,26.9266592 C8.84906616,24.0172662 11.2314406,21.6593213 14.1714621,21.6559582 C14.7201996,21.6559582 15.2460364,21.7457353 15.7428068,21.9000125 L15.7428068,15.4996887 C15.2222255,15.4267223 14.6972334,15.3888647 14.1714621,15.3863778 C14.0789783,15.3863778 13.988256,15.3916075 13.896653,15.3933508 L13.896653,20.3093015 C13.388489,20.1492295 12.8585935,20.0669285 12.3253083,20.0652472" id="形状" fill="#FF004F"></path>
            <path d="M32.1532084,11.0008735 L32.1532084,15.8838834 C28.868262,15.8838834 25.8255034,14.841767 23.3402168,13.072877 L23.3402168,25.8412053 C23.3402168,32.2179445 18.1107231,37.4058149 11.6817395,37.4058149 C9.19733366,37.4058149 6.89346776,36.6283768 5,35.3093527 C7.2006955,37.6633081 10.2910883,39.0007866 13.5276504,39 C19.956634,39 25.1870084,33.8121292 25.1870084,27.4362636 L25.1870084,14.6679353 C27.7544407,16.4991162 30.8377082,17.4825603 34,17.4789417 L34,11.1947963 C33.3659085,11.1947963 32.7494306,11.1266613 32.1532084,11" id="路径" fill="#FF004F"></path>
            <path d="M23.9786547,25.4190568 L23.9786547,12.6326996 C26.6066739,14.4666805 29.7629082,15.4515361 33,15.4476752 L33,10.5577705 C31.0913787,10.1583421 29.3677274,9.16907377 28.0877076,7.7384212 C26.0159757,6.43090073 24.5864469,4.3571751 24.1319103,2 L19.384593,2 L19.3746765,27.2149377 C19.2655946,30.0386608 16.8702998,32.3051622 13.934103,32.3051622 C12.1814976,32.3034007 10.5369778,31.4829054 9.51583447,30.1007687 C7.7213232,29.1879457 6.59619217,27.3850884 6.59406171,25.4190568 C6.59753921,22.4995348 9.03577081,20.1336362 12.0445517,20.1302619 C12.6052869,20.1302619 13.1434845,20.2194873 13.6528339,20.3751945 L13.6528339,15.4415519 C7.20167505,15.5885114 2,20.7215992 2,27.0163673 C2,30.0605298 3.2188327,32.8317673 5.20484485,34.9014479 C7.20695433,36.2690564 9.59610241,37.0020908 12.0445517,37 C18.6255271,37 23.9786547,31.8047999 23.9786547,25.4190568" id="路径" fill="#FFFFFF"></path>
        </g>
    </g>
</svg>